# xmcd
#
# Track frame offsets:
#	150
#	13525
#	24740
#	36812
#	45920
#	54523
#	64985
#	77836
#	90868
#	102439
#	115883
#	128820
#
# Disc length: 1883 seconds
#
# Revision: 0
# Processed by: cddbd v1.5.2PL0 Copyright (c) Steve Scherf et al.
# Submitted via: EasyCDDAExtractor 10.0.2.1
#
DISCID=9007590c
DTITLE=Larry Finnegan
DYEAR=1966
DGENRE=Oldies
TTITLE0=Dear One
TTITLE1=Candy Lips
TTITLE2=Oh, Lonesome Me
TTITLE3=Pretty Suzy Sunshine
TTITLE4=I Like It Like That
TTITLE5=Lucinda
TTITLE6=Good Morning Tears
TTITLE7=Seven Days
TTITLE8=THe Biggest Hurt Of All
TTITLE9=Pick Up The Pieces
TTITLE10=A Kiss And A Dozen Roses
TTITLE11=Call Me The Joker
EXTD=
EXTT0=
EXTT1=
EXTT2=
EXTT3=
EXTT4=
EXTT5=
EXTT6=
EXTT7=
EXTT8=
EXTT9=
EXTT10=
EXTT11=
PLAYORDER=
